<?xml version="1.0" standalone="no"?>
<!DOCTYPE svg PUBLIC "-//W3C//DTD SVG 1.1//EN"
"http://www.w3.org/Graphics/SVG/1.1/DTD/svg11.dtd">

<svg xmlns="http://www.w3.org/2000/svg" xmlns:xlink="http://www.w3.org/1999/xlink" version="1.1" width="600" height="720">

<style type="text/css">
<![CDATA[
  text {
    font-size: 9pt;
    font-family: sans-serif;
    text-anchor: middle;
  }
  .explanation {
    font-size: 10pt;
    font-style: italic;
    text-anchor: start;
  }
  .bracketLine {
    stroke: black;
    shape-rendering: crispEdges;
    stroke-width: 2;
    fill: none;
  }
  .bar {
    fill: none;
    stroke: black;
    stroke-width: 3;
    shape-rendering: crispEdges;
  }
]]>
</style>

<defs>
  <rect id="b1" x="0" y="20" width="7" height="20" style="fill: red"/> 
  <rect id="b2" x="0" y="15" width="7" height="25" style="fill: red"/> 
  <rect id="b3" x="0" y="30" width="7" height="10" style="fill: red"/> 
  <polyline id="l1" class="bracketLine" points="0 15, 0 0, 80 0, 80 15"/>
  <polyline id="l2" class="bracketLine" points="0 15, 0 0, 160 0, 160 15"/>
  <polyline id="l4" class="bracketLine" points="0 15, 0 0, 320 0, 320 15"/>
  <polyline id="l5" class="bracketLine" points="0 15, 0 0, 400 0, 400 15"/>
  <polyline id="ul1" class="bracketLine" points="0 0, 0 15, 80 15, 80 0"/>
  <polyline id="ul1_8" class="bracketLine" points="0 0, 0 15, 20 15, 20 0"/>
  <polyline id="ul1_16" class="bracketLine" points="0 0, 0 15, 10 15, 10 0"/>
  <rect id="2bar" x="0" y="0" width="320" height="40" class="bar"/>
  <rect id="1bar" x="0" y="0" width="160" height="40" class="bar"/>
  <rect id="1_2bar" x="0" y="0" width="80" height="40" class="bar"/>
  <pattern id="1_16_gridlines" patternTransform="translate(2,0)" patternUnits="userSpaceOnUse" width="10" height="40">
    <line x1="8" x2="8" y1="0" y2="40" strokeWidth="1" stroke="grey" shape-rendering="crispEdges"/>
  </pattern> 
  <pattern id="1_8_gridlines" patternTransform="translate(2,0)" patternUnits="userSpaceOnUse" width="20" height="40">
    <line x1="18" x2="18" y1="0" y2="40" strokeWidth="1" stroke="grey" shape-rendering="crispEdges"/>
  </pattern> 
  <g id="1bar1_16grid">
    <use xlink:href="#b1" x="10"/>
    <use xlink:href="#b2" x="70"/>
    <use xlink:href="#b3" x="140"/>
    <rect x="0" y="0" width="160" height="40" fill="url(#1_16_gridlines)"/>
    <use xlink:href="#1bar" x="0"/>
  </g>
  <g id="1bar1_8grid">
    <use xlink:href="#b1" x="0"/>
    <use xlink:href="#b2" x="80"/>
    <use xlink:href="#b3" x="140"/>
    <rect x="0" y="0" width="160" height="40" fill="url(#1_8_gridlines)"/>
    <use xlink:href="#1bar" x="0"/>
  </g>
  <g id="1_2bar1_8grid_a">
    <use xlink:href="#b1" x="0"/>
    <rect x="0" y="0" width="80" height="40" fill="url(#1_8_gridlines)"/>
    <use xlink:href="#1_2bar" x="0"/>
  </g>
  <g id="1_2bar1_8grid_b">
    <use xlink:href="#b2" x="0"/>
    <use xlink:href="#b3" x="60"/>
    <rect x="0" y="0" width="80" height="40" fill="url(#1_8_gridlines)"/>
    <use xlink:href="#1_2bar" x="0"/>
  </g>
</defs>

<text x="300" y="30" style="font-size: 1.3em; font-weight: bold">Understanding Grid, Pattern, and Step Size in Maschine</text>

<g transform="translate(15,50)">
  <text x="0" y="60" class="explanation">
  First, we start
    <tspan x="5" y="75">with the default.</tspan> 
  </text>
  <g transform="translate(170,0)">
    <text x="80" y="15">Grid Pattern Length = 1 Bar</text>
    <use xlink:href="#l2" x="0" y="20"/>
    <text x="80" y="50">Pattern Length = 1 Bar</text>
    <use xlink:href="#l2" x="0" y="55"/>
    <use xlink:href="#1bar1_16grid" x="0" y="75"/>
    <use xlink:href="#ul1_16" x="0" y="120"/>
    <text x="5" y="150">Step Size = 1/16</text>
  </g>
</g>

<g transform="translate(15,220)">
  <text x="0" y="50" class="explanation">
  We adjust the pattern
    <tspan x="5" y="65">length up one "notch"</tspan> 
    <tspan x="5" y="80">(One "notch" is one</tspan> 
    <tspan x="5" y="95">Grid Pattern Length)</tspan> 
  </text>
  <g transform="translate(170,0)">
    <text x="80" y="15">Grid Pattern Length = 1 Bar</text>
    <use xlink:href="#l2" x="0" y="20"/>
    <text x="160" y="50">Pattern Length = 2 Bar</text>
    <use xlink:href="#l4" x="0" y="55"/>
    <use xlink:href="#1bar1_16grid" x="0" y="75"/>
    <use xlink:href="#1bar1_16grid" x="160" y="75"/>
    <use xlink:href="#ul1_16" x="0" y="120"/>
    <text x="5" y="150">Step Size = 1/16</text>
  </g>
</g>

<g transform="translate(15,390)">
  <text x="0" y="15" class="explanation">
  Adjusting the step size
    <tspan x="5" y="30">so that the whole</tspan> 
    <tspan x="5" y="45">pattern will display in</tspan> 
    <tspan x="5" y="60">the 16 Machine pads</tspan> 
    <tspan x="5" y="75">when in step mode.</tspan> 
    <tspan x="0" y="100">Then we quantize.</tspan>
    <tspan x="5" y="115">Note that the notes snap</tspan>
    <tspan x="5" y="130">to the new step size.</tspan>
  </text>
  <g transform="translate(170,0)">
    <text x="80" y="15">Grid Pattern Length = 1 Bar</text>
    <use xlink:href="#l2" x="0" y="20"/>
    <text x="160" y="50">Pattern Length = 2 Bar</text>
    <use xlink:href="#l4" x="0" y="55"/>
    <use xlink:href="#1bar1_8grid" x="0" y="75"/>
    <use xlink:href="#1bar1_8grid" x="160" y="75"/>
    <use xlink:href="#ul1_8" x="0" y="120"/>
    <text x="10" y="150">Step Size = 1/8</text>
  </g>
</g>

<g transform="translate(15,560)">
  <text x="0" y="65" class="explanation">
  We want a 2 1/2 bar
    <tspan x="5" y="80">pattern. To do this, we</tspan> 
    <tspan x="5" y="95">have to adjust the Grid</tspan> 
    <tspan x="5" y="110">Pattern Length and the</tspan> 
    <tspan x="5" y="125">Pattern Length.</tspan> 
  </text>
  <g transform="translate(170,0)">
    <text x="40" y="15">Grid Pattern Length = 1/2 Bar</text>
    <use xlink:href="#l1" x="0" y="20"/>
    <text x="200" y="50">Pattern Length = 5 (meaning 5 Grid Pattern Lengths)</text>
    <use xlink:href="#l5" x="0" y="55"/>
    <use xlink:href="#1_2bar1_8grid_a" x="0" y="75"/>
    <use xlink:href="#1_2bar1_8grid_b" x="80" y="75"/>
    <use xlink:href="#1_2bar1_8grid_a" x="160" y="75"/>
    <use xlink:href="#1_2bar1_8grid_b" x="240" y="75"/>
    <use xlink:href="#1_2bar1_8grid_a" x="320" y="75"/>
    <use xlink:href="#ul1_8" x="0" y="120"/>
    <text x="10" y="150">Step Size = 1/8</text>
  </g>
</g>

</svg>
